<?xml version="1.0" encoding="UTF-8"?>
<svg width="382px" height="391px" viewBox="0 0 382 391" version="1.1" xmlns="http://www.w3.org/2000/svg" xmlns:xlink="http://www.w3.org/1999/xlink">
    <!-- Generator: Sketch 51.3 (57544) - http://www.bohemiancoding.com/sketch -->
    <title>Artboard</title>
    <desc>Created with Sketch.</desc>
    <defs></defs>
    <g id="Artboard" stroke="none" stroke-width="1" fill="none" fill-rule="evenodd">
        <g id="fire-(5)" transform="translate(118.000000, 21.000000)" fill-rule="nonzero">
            <path d="M128.066269,76.7166274 C129.610142,119.144739 100.206433,138.963528 96.8288243,125.643225 C91.684951,105.357194 123.5221,75.9094481 108.090036,39.2635077 C92.6579722,2.61756718 58.8920924,0 58.8920924,0 C58.8920924,0 83.2380433,21.5115591 71.7881753,56.8540203 C67.1605537,71.1383266 57.9261735,71.9196761 50.7643463,58.7626535 C43.6637769,45.7186359 33.5984224,40.9345994 22.8814276,39.7395128 C22.8814276,39.7395128 46.066589,63.6061905 19.7963465,96.7522016 C-28.4605366,157.639812 23.7927473,195.056494 46.8838026,205.998616 C46.8838026,205.998616 87.3578473,206 87.3578473,206 C99.2089977,205.859781 142.843586,187.790035 148.344352,148.308358 C153.348398,112.385189 128.066269,76.7166274 128.066269,76.7166274 Z" id="Shape" fill="#04BEFF"></path>
            <path d="M128.670291,76.7166274 C128.95136,84.667113 128.173246,91.8182604 126.707114,98.110569 C126.662281,98.3033696 126.616586,98.4957089 126.570459,98.6871257 C126.433804,99.2530737 126.292838,99.8134867 126.145406,100.365136 C125.897099,101.266871 125.75872,101.752101 125.615598,102.231796 C125.330218,103.179194 125.156489,103.720696 124.97845,104.254818 C124.651254,105.220204 124.462868,105.756633 124.268447,106.282452 C123.995568,107.008914 123.804165,107.500601 123.608451,107.98537 C123.29117,108.767181 123.074332,109.276396 122.853184,109.777308 C122.497105,110.57434 122.265611,111.07802 122.028943,111.570169 C113.757219,128.751557 100.506424,134.463157 98.3346011,125.643686 C93.3391489,105.357655 124.25767,75.9099094 109.270882,39.2639689 C94.2836636,2.61756718 61.4920635,0 61.4920635,0 C61.4920635,0 78.6127386,4.03266781 94.0159577,36.9415987 C110.756413,72.7079444 79.1399597,104.835064 81.6320817,125.643225 C83.0688993,137.63837 96.8831265,153.614524 121.476719,139.417393 C125.210806,137.261994 129.70792,140.319589 129.526432,144.855476 C128.084873,180.91379 76.9668432,205.846867 66.3918141,205.999078 C77.1323811,205.999539 89.1364683,206 89.1364683,206 C100.645666,205.859781 143.021223,187.790035 148.36327,148.308358 C153.22293,112.385189 128.670291,76.7166274 128.670291,76.7166274 Z" id="Shape" fill="#0268EB"></path>
            <path d="M98.0266517,188.324815 C124.591421,168.675739 117.353484,151.570706 117.353484,151.570706 C96.7683921,175.600878 61.3283172,180.295209 63.7216376,160.623327 C66.114958,140.951445 48.164602,138.141176 48.164602,138.141176 C56.4415772,152.794788 39.5316181,163.257663 36.0480777,178.137474 C33.2258257,190.193518 41.5127656,200.192359 46.4189818,205.997673 C46.418076,205.998604 87.7164412,206 87.7164412,206 C87.7164412,206 89.9693511,194.284651 98.0266517,188.324815 Z" id="Shape" fill="#00FFFB"></path>
        </g>
        <g id="cup" transform="translate(62.000000, 186.000000)" fill-rule="nonzero">
            <path d="M114.01996,157.368421 L90.0058469,157.368421 C81.1968347,157.368421 74.0555556,163.009934 74.0555556,169.968933 L74.0555556,184 L183.944444,184 L183.944444,169.968933 C183.944444,163.009934 176.803165,157.368421 167.994153,157.368421 L143.98004,157.368421 L114.01996,157.368421 Z" id="Shape" fill="#F9AC30"></path>
            <path d="M251.138155,27.8186655 C242.871009,17.6827693 228.379481,12.1052632 210.342591,12.1052632 L209.874101,12.1052632 L48.1305602,12.1052632 L47.6620695,12.1052632 C29.6194662,12.1052632 15.1336521,17.6823629 6.86650615,27.8186655 C-2.06494088,38.7684729 -2.29347291,53.2929067 6.24012065,67.6767447 C21.9241696,94.101023 71.4008336,102.912231 73.5028088,103.274285 L78.3170437,104.105263 L78.3222376,104.105263 L179.67671,104.105263 L179.681904,104.105263 L184.501333,103.274285 C186.598114,102.912231 236.079972,94.101023 251.758827,67.6767447 C260.29294,53.2929067 260.064408,38.7684729 251.138155,27.8186655 Z M236.940603,62.2914403 C230.655972,72.8791934 215.968115,80.0369794 204.749789,84.1739886 C200.120977,85.8826739 195.714984,87.2203651 191.984718,88.2341985 L66.0204626,88.238262 L66.0152687,88.238262 C62.2792895,87.2199588 57.8738153,85.8822675 53.2501969,84.1735823 C42.0370654,80.036573 27.3440144,72.8787871 21.0593837,62.291034 C14.9217406,51.9503393 14.7695591,41.8912425 20.6402352,34.6948536 C25.7977874,28.367639 35.3987294,24.8868786 47.6631083,24.8868786 L48.1477001,24.8868786 L209.859038,24.8868786 L210.34363,24.8868786 C222.608009,24.8868786 232.203757,28.367639 237.366503,34.6948536 C243.230947,41.8916488 243.078246,51.9507456 236.940603,62.2914403 Z" id="Shape" fill="#DD8D19"></path>
            <path d="M140.488189,156.438691 L140.463672,143.999538 C140.445936,135.052734 146.385387,126.679976 156.261171,122.147092 C187.709586,107.712427 210.222222,69.015464 210.222222,23.5366937 L210.222222,0 L47.7777778,0 L47.7777778,23.5358788 C47.7777778,69.015464 70.2914569,107.713649 101.740916,122.147092 C111.616178,126.679569 117.555629,135.051919 117.538415,143.997908 L117.514941,156.438284 L130.641617,167.052632 L140.488189,156.438691 Z" id="Shape" fill="#F9AC30"></path>
            <g id="Group" transform="translate(47.777778, 0.000000)" fill="#DD8D19">
                <path d="M76.0539264,143.751179 L76.0429485,156.16932 L70.0411673,156.16932 L70.0631232,143.751179 C70.0793286,134.821407 64.1266867,126.463067 54.2334973,121.938394 C22.7164357,107.528584 0.155781794,68.8970331 0.155781794,23.497386 L0.155781794,0 L42.6026613,0 L42.6026613,23.497386 C42.6026613,68.8970331 53.4007443,107.528584 68.4796901,121.938394 C73.2148293,126.46266 76.0649043,134.821001 76.0539264,143.751179 Z" id="Shape"></path>
                <path d="M77.3242276,156.16932 L66.4524357,156.16932 L42.2440495,156.16932 C33.3639645,156.16932 26.1650683,161.770152 26.1650683,168.678971 L26.1650683,182.608861 L61.2447236,182.608861 L61.2447236,168.678971 C61.2447236,161.770152 68.4436198,156.16932 77.3242276,156.16932 Z" id="Shape"></path>
            </g>
        </g>
    </g>
</svg>