<?xml version="1.0" encoding="UTF-8"?>
<svg width="446px" height="633px" viewBox="0 0 446 633" version="1.1" xmlns="http://www.w3.org/2000/svg" xmlns:xlink="http://www.w3.org/1999/xlink">
    <!-- Generator: Sketch 51.2 (57519) - http://www.bohemiancoding.com/sketch -->
    <title>Artboard</title>
    <desc>Created with Sketch.</desc>
    <defs></defs>
    <g id="Artboard" stroke="none" stroke-width="1" fill="none" fill-rule="evenodd">
        <g id="Group-13" transform="translate(7.000000, 9.000000)">
            <g id="Group" transform="translate(0.000000, 187.000000)">
                <polygon id="Path" fill="#00E3D8" points="0.378149091 308.400037 75.1852027 304.963767 149.992256 419.751969"></polygon>
                <polygon id="Path-2" fill="#07D6F2" points="0.351046256 308.626107 14.5322825 180.68061 74.3856691 305.176919"></polygon>
                <polygon id="Path-3" fill="#25B5FF" points="14.7000619 181.060408 79.1841616 169.718135 74.4682682 305.773745"></polygon>
                <polygon id="Path-4" fill="#4082FF" points="69.4787651 99.8636811 79.4680961 169.92612 14.6161722 181.405327 43.7236256 138.065074"></polygon>
                <polygon id="Path-5" fill="#026FFC" points="100.174663 84.0930118 79.3571035 170.376969 68.8037755 100.485052"></polygon>
                <polygon id="Path-6" stroke="#0228FC" fill="#0228FC" points="85.8153221 0.204109252 69.326473 100.938484 100.071414 84.6097441"></polygon>
            </g>
            <g id="Group-2" transform="translate(25.000000, 229.000000)">
                <polygon id="Path-7" fill="#026FFC" points="6.8984375 82.9897073 25.6354167 68.9170697 0.372395833 46.0287698"></polygon>
                <polygon id="Path-8" fill="#0228FC" points="18.7161458 0.391121032 25.3333333 69.1743862 0.303385417 45.8666605"></polygon>
            </g>
            <g id="Group-3" transform="translate(82.000000, 335.000000)">
                <polygon id="Path-9" stroke="#D3D3D3" fill="#70FFFE" points="61.1359597 251.49262 106.824645 272.439685 66.407731 191.813692"></polygon>
                <polygon id="Path-10" fill="#00E3D8" points="66.1692832 191.888573 139.497186 173.201933 106.443646 272.439685"></polygon>
                <polygon id="Path-11" fill="#00E3D8" points="37.6332938 195.291777 66.6701533 192.094495 64.9663055 210.029243 63.6809143 224.867446 61.5027029 251.83132"></polygon>
                <polygon id="Path-12" fill="#07D6F2" points="0.272141588 159.645922 37.5970083 195.234971 65.8880702 192.152592"></polygon>
                <polygon id="Path-13" fill="#25B5FF" points="139.299559 173.266486 0.70886404 159.701437 65.4072867 192.09514"></polygon>
                <polygon id="Path-14" fill="#4082FF" points="139.287896 173.250993 8.78369372 92.253178 0.688777399 159.939635"></polygon>
                <polygon id="Path-15" fill="#026FFC" points="8.62040877 92.3512977 46.4688241 72.939089 139.041673 173.189668"></polygon>
                <polygon id="Path-16" fill="#0228FC" points="8.72602562 92.664377 15.3099082 0.335672669 46.9327607 73.9254502"></polygon>
            </g>
            <g id="Group-4" transform="translate(108.000000, 160.000000)">
                <polygon id="Path-17" fill="#00E3D8" points="35.1981618 248.518846 55.4852941 181.346067 2.45321691 175.024448"></polygon>
                <polygon id="Path-18" fill="#07D6F2" points="2.45 175.140209 46.4785846 121.904741 55.475 181.602165"></polygon>
                <polygon id="Path-19" fill="#25B5FF" points="10.2606618 116.033234 2.52077206 175.113047 46.7352941 121.97782"></polygon>
                <polygon id="Path-20" fill="#4082FF" points="10.114614 116.562892 24.4253676 70.152832 46.4837316 122.194468"></polygon>
                <polygon id="Path-21" fill="#026FFC" points="0.409191176 66.5984978 24.8680147 70.2899352 10.1493566 116.703229"></polygon>
                <polygon id="Path-22" fill="#0228FC" points="24.4974265 0.297487949 0.573253676 66.7336608 24.4974265 70.4748951"></polygon>
            </g>
            <g id="Group-5" transform="translate(118.000000, 59.000000)">
                <polygon id="Path-23" fill="#026FFC" points="12.9990328 69.5570268 20.8666992 31.6523437 0.397844796 45.894868"></polygon>
                <polygon id="Path-24" fill="#0228FC" points="17.1130453 0.260704685 20.881092 31.8931778 0.593444824 46.1751302"></polygon>
            </g>
            <g id="Group-7" transform="translate(151.000000, 28.000000)">
                <polygon id="Path-25" fill="#17FFF4" points="73.780872 578.740457 127.75913 451.268321 0.503760105 451.268321"></polygon>
                <polygon id="Path-26" fill="#00E3D8" points="73.4855077 579.574102 184.532024 462.036726 127.090002 451.612679"></polygon>
                <polygon id="Path-27" fill="#00E3D8" points="25.7300509 294.585204 0.871987007 451.323199 127.20679 451.323199"></polygon>
                <polygon id="Path-28" fill="#07D6F2" points="155.935358 257.811558 126.222663 451.452938 184.160786 461.913349"></polygon>
                <polygon id="Path-29" fill="#25B5FF" points="25.4885263 294.40064 156.10848 258.58122 126.632466 450.67564"></polygon>
                <polygon id="Path-30" fill="#4082FF" points="87.5042356 163.875774 25.9327397 294.460126 156.348881 258.89809"></polygon>
                <path d="M2.91372274,146.01715 C2.91372274,146.01715 31.0794168,152.089384 87.4108049,164.233852 L26.5558134,294.929563 C10.7944196,195.654621 2.91372274,146.01715 2.91372274,146.01715 Z" id="Path-31" fill="#026FFC"></path>
                <polygon id="Path-32" fill="#0228FC" points="64.4996721 0.442682112 2.68341174 146.89578 87.3339144 164.5061"></polygon>
            </g>
            <g id="Group-6" transform="translate(242.000000, 0.000000)">
                <polygon id="Path-33" fill="#026FFC" points="3.64116698 53.6570721 16.2940398 34.9298306 0.257324219 23.3401058"></polygon>
                <path d="M5.26020361,0.501944824 C5.26020361,0.501944824 3.65155411,8.16350259 0.434255105,23.4866181 L16.6149715,35.4548638 C9.04512623,12.1529178 5.26020361,0.501944824 5.26020361,0.501944824 Z" id="Path-34" fill="#0228FC"></path>
            </g>
            <g id="Group-9" transform="translate(251.000000, 395.000000)">
                <polygon id="Path-35" fill="#00F8FF" points="0.329710145 215.562643 38.0982648 134.597477 48.0732846 159.93965"></polygon>
                <polygon id="Path-37" fill="#17FFF4" points="71.0834466 179.402666 0.329710145 215.29623 48.2574587 159.626792"></polygon>
                <polygon id="Path-38" fill="#00E3D8" points="90.1158359 104.795298 47.1485507 159.338446 71.204512 179.783257"></polygon>
                <polygon id="Path-39" fill="#07D6F2" points="38.1472062 134.772936 90.6586985 104.397936 47.6572832 159.28039"></polygon>
                <polygon id="Path-40" fill="#25B5FF" points="57.2124377 58.4458142 38.0898933 134.820026 89.9226463 104.899154"></polygon>
                <polygon id="Path-41" fill="#4082FF" points="31.2001104 54.4231651 38.4988111 133.484088 57.3328592 58.9838016"></polygon>
                <polygon id="Path-42" fill="#0228FC" points="64.4866678 0.612815367 31.0152924 54.7302179 57.5125255 58.9412271"></polygon>
            </g>
            <g id="Group-8" transform="translate(251.000000, 93.000000)">
                <polygon id="Path-43" fill="#25B5FF" points="18.9770956 130.66083 57.492729 102.746079 57.492729 179.65763"></polygon>
                <polygon id="Path-44" fill="#4082FF" points="0.329545455 75.712483 18.9845893 130.566779 57.6182481 103.139631"></polygon>
                <polygon id="Path-45" fill="#026FFC" points="0.329545455 76.1598116 29.0017639 58.3205752 57.5970792 103.446619"></polygon>
                <polygon id="Path-46" fill="#0228FC" points="20.0149701 0.347548936 0.329545455 76.2399472 29.265916 58.2246432"></polygon>
            </g>
            <g id="Group-10" transform="translate(319.000000, 212.000000)">
                <polygon id="Path-36" fill="#00E3D8" points="0.161525983 386.682516 28.6780681 269.871285 59.030255 287.322339"></polygon>
                <path d="M1.3755712,386.587772 C3.98095301,386.587772 38.4330032,352.834466 104.731722,285.327854 L58.371537,288.193027 C17.7688447,353.789524 -1.22981061,386.587772 1.3755712,386.587772 Z" id="Path-47" fill="#02FFF3"></path>
                <polygon id="Path-48" fill="#25B5FF" points="3.45016354 165.405144 28.7283498 270.084474 66.7132638 185.220579"></polygon>
                <polygon id="Path-49" fill="#25B5FF" points="66.4448419 185.553975 58.4954241 287.311504 28.109314 269.279836"></polygon>
                <polygon id="Path-50" fill="#07D6F2" points="66.521802 185.077425 104.607679 285.311125 58.3846766 288.667693"></polygon>
                <polygon id="Path-51" fill="#4082FF" points="3.31607459 165.403775 22.2622215 92.3084185 66.4143573 185.156426"></polygon>
                <polygon id="Path-52" fill="#026FFC" points="21.7789099 92.5701235 59.6235469 79.2795821 66.275059 185.165486"></polygon>
                <polygon id="Path-53" fill="#0228FC" points="6.21697391 0.370077764 22.1535967 92.7700898 59.5829341 79.5063109"></polygon>
            </g>
            <g id="Group-11" transform="translate(337.000000, 126.000000)">
                <polygon id="Path-54" fill="#026FFC" points="0.739583333 76.3888699 29.5143229 50.2643889 21.5038298 94.5923297"></polygon>
                <polygon id="Path-55" fill="#0228FC" points="0.598706669 76.670214 9.22263845 0.610273105 29.4853725 50.6433969"></polygon>
            </g>
            <g id="Group-12" transform="translate(388.000000, 259.000000)">
                <polygon id="Path-56" fill="#0228FC" points="0.378255208 39.306674 17.8346354 34.8483828 8.39016337 0.265071267"></polygon>
                <polygon id="Path-57" fill="#026FFC" points="0.163411458 39.1101083 45.7636719 90.4965204 17.8554544 34.3390129"></polygon>
                <polygon id="Path-58" fill="#4082FF" points="14.2428385 97.2773904 45.7529546 90.4871473 0.353667068 38.458751"></polygon>
                <polygon id="Path-59" fill="#25B5FF" points="37.5983073 134.84407 45.8060133 90.6038324 13.8874225 96.5792406"></polygon>
                <polygon id="Path-60" fill="#07D6F2" points="8.29920562 147.606403 37.7657271 134.831263 14.4691731 97.1984246"></polygon>
                <polygon id="Path-61" fill="#00E3D8" points="8.33007813 147.576225 37.3772617 193.952986 37.3772617 134.797386"></polygon>
            </g>
        </g>
    </g>
</svg>