<?xml version="1.0" encoding="UTF-8"?>
<svg width="398px" height="519px" viewBox="0 0 398 519" version="1.1" xmlns="http://www.w3.org/2000/svg" xmlns:xlink="http://www.w3.org/1999/xlink">
    <!-- Generator: Sketch 51.3 (57544) - http://www.bohemiancoding.com/sketch -->
    <title>Artboard</title>
    <desc>Created with Sketch.</desc>
    <defs></defs>
    <g id="Artboard" stroke="none" stroke-width="1" fill="none" fill-rule="evenodd">
        <path d="M170.908219,510.90809 C152.841892,506.52037 139.701294,502.583536 131.486426,499.09759 C103.586249,487.258262 85.9809091,471.709655 74.710293,460.6754 C27.6619049,414.613685 6,348.41117 6,314.771808 C6,263.706202 22.597142,212.583332 55.7914261,161.4032 C56.365531,180.868536 58.6885579,195.583833 62.760507,205.54909 C66.832456,215.514346 73.4994392,226.114514 82.7614564,237.349592 C80.8126471,211.231035 80.8126471,191.994562 82.7614564,179.640173 C89.1758056,138.976693 111.829722,101.242322 125.005649,84.8086944 C144.186247,60.8857632 186.352311,33.6161984 251.503842,3 C237.596932,24.81514 230.643477,42.4879419 230.643477,56.0184058 C230.643477,121.239693 260.226138,167.268189 271.743084,179.640173 C287.821972,196.912784 303.66387,235.563376 319.268777,295.591947 C334.388304,266.973242 343.862061,245.821061 347.690048,232.135403 C351.518036,218.449744 352.715359,200.951334 351.282016,179.640173 C364.806526,199.794746 373.543269,214.668818 377.492244,224.262387 C396.204115,269.720659 389.057006,349.698286 377.492244,387.089156 C365.2257,426.749008 357.553461,443.729892 319.268777,478.672259 C306.493261,490.332451 284.648983,503.87655 251.503842,510.90809 C240.878851,513.162116 225.250505,514.183741 204.618804,513.972963 C222.439228,512.291416 235.460679,508.715079 243.683158,503.243954 C268.94189,486.437137 289.806033,452.71678 296.656376,440.458948 C306.851709,422.215676 304.085301,394.896006 288.357154,358.499938 C288.292259,383.472081 286.693225,401.266567 283.560051,411.883396 C280.426877,422.500225 273.229921,434.511145 261.969182,447.916156 C271.951427,405.584463 261.509525,366.949489 230.643477,332.011233 C199.777428,297.072977 185.169964,259.278728 186.821084,218.628486 C160.428504,246.193052 144.706404,270.505111 139.654782,291.564665 C136.221686,305.876796 130.793332,334.02695 134.467036,358.499938 C135.621676,366.191762 139.854949,376.780868 147.166858,390.267254 C137.909399,382.941823 131.66366,376.609703 128.42964,371.270895 C125.19562,365.932087 121.989087,355.590905 118.810043,340.247348 C95.3006698,375.391681 86.833471,404.225567 93.4084462,426.749008 C97.6955459,441.435031 104.98941,464.330768 125.005649,483.718563 C132.126962,490.616289 147.427818,499.679465 170.908219,510.90809 Z" id="Path-2" fill="#FFFFFF"></path>
    </g>
</svg>